<svg xmlns="http://www.w3.org/2000/svg" xml:space="preserve" viewBox="0 0 512 512"><path fill="#6fb0b6" d="M126.592 370.236C61.713 363.059 12.8 308.446 12.8 243.2c0-67.311 52.224-122.65 118.281-127.633C142.925 56.252 194.782 12.8 256 12.8s113.075 43.452 124.919 102.767C446.976 120.55 499.2 175.889 499.2 243.2c0 65.323-48.913 119.996-113.792 127.172l-258.816-.136z"/><path fill="#919cb0" d="M140.8 499.2V396.8h230.4v102.4H140.8z"/><path fill="#a7b0c0" d="M140.8 396.8V294.4h230.4v102.4H140.8z"/><path fill="#bdc4d0" d="M140.8 294.4V192h230.4v102.4H140.8z"/><g fill="#573a32"><circle cx="192" cy="243.2" r="12.8"/><circle cx="192" cy="345.6" r="12.8"/><circle cx="192" cy="448" r="12.8"/><path d="M243.2 256H320c7.074 0 12.8-5.726 12.8-12.8s-5.726-12.8-12.8-12.8h-76.8c-7.074 0-12.8 5.726-12.8 12.8s5.726 12.8 12.8 12.8zM243.2 358.4H320c7.074 0 12.8-5.726 12.8-12.8 0-7.074-5.726-12.8-12.8-12.8h-76.8c-7.074 0-12.8 5.726-12.8 12.8 0 7.074 5.726 12.8 12.8 12.8zM243.2 460.8H320c7.074 0 12.8-5.726 12.8-12.8s-5.726-12.8-12.8-12.8h-76.8c-7.074 0-12.8 5.726-12.8 12.8s5.726 12.8 12.8 12.8z"/><path d="M391.305 103.834C374.98 43.349 320.162 0 256 0S137.028 43.349 120.695 103.834C52.54 113.613 0 172.382 0 243.2c0 73.301 56.371 133.444 128 139.955V486.4c0 14.14 11.46 25.6 25.6 25.6h204.8c14.14 0 25.6-11.46 25.6-25.6V383.351c71.654-6.494 128-66.833 128-140.151 0-70.818-52.54-129.587-120.695-139.366zM358.4 486.4H153.6v-76.8h204.8v76.8zm0-102.4H153.6v-76.8h204.8V384zm0-102.4H153.6v-76.8h204.8v76.8zm25.6 76.049V204.8c0-14.14-11.46-25.6-25.6-25.6H153.6c-14.14 0-25.6 11.46-25.6 25.6v152.721C70.417 351.138 25.6 302.481 25.6 243.2c0-63.625 51.575-115.2 115.2-115.2.435 0 .845.119 1.28.128C148.463 70.545 196.719 25.6 256 25.6s107.537 44.945 113.92 102.528c.435-.009.845-.128 1.28-.128 63.625 0 115.2 51.575 115.2 115.2 0 59.29-44.809 108.075-102.4 114.449z"/></g></svg>