<svg xmlns="http://www.w3.org/2000/svg" width="900" height="900"><path fill="#F8F8F8" d="M494.313 209.688C498.14 212.98 501.37 216.11 503 221c.153 2.583.257 5.145.316 7.73l.063 2.274c.066 2.395.125 4.79.183 7.184l.131 4.873c.107 3.98.209 7.96.307 11.939 4 .249 7.999.43 12.006.55 1.36.05 2.718.117 4.076.204 4.466.28 8.561.321 12.918-.754 3.256-2.924 4.99-6.164 7-10 6.258-7.74 14.557-12.182 24.367-13.781 12.595-1.047 22.739 2.411 32.36 10.484C600.28 245.294 605 250.69 605 256h31l-.14-7.156c-.032-2.31-.056-4.62-.08-6.93-.02-1.595-.047-3.19-.082-4.784-.35-16.452-.35-16.452 4.302-23.13 4.222-4.34 9.424-6.75 15.457-7.172 6.606.284 10.884 2.536 15.543 7.172 3.937 5.334 4.145 10.14 4.098 16.61l-.005 2.202a2241.59 2241.59 0 0 1-.03 6.938c-.006 1.572-.01 3.143-.014 4.715-.01 3.845-.03 7.69-.049 11.535h31l2-6c5.318-9.164 13.89-15.115 24-18 10.987-2.047 21.321-.334 30.906 5.5 8.957 6.417 14.868 15.101 16.875 26.023.897 10.148-.6 19.837-6.73 28.106-8.213 9.618-16.912 15.262-29.621 16.652-10.28.387-19.2-3.277-27.43-9.281l-2.123-2.562c-3.685-3.123-6.618-3.169-11.24-3.145l-2.4-.046a544.79 544.79 0 0 0-7.55-.06c-1.711-.023-3.423-.048-5.134-.076-4.185-.062-8.368-.095-12.553-.111.037 25.035.097 50.07.184 75.106.04 11.626.072 23.251.087 34.877.013 10.138.04 20.275.084 30.413.022 5.364.038 10.727.037 16.09 0 5.059.017 10.117.05 15.176.008 1.846.01 3.693.004 5.54-.057 21.428 4.918 38.433 19.804 54.423 10.42 10.003 23.23 14.92 37.313 16.813 9.173 1.248 17.841 3.567 24.625 10.312 2.805 5.03 3.438 9.82 2.402 15.496-1.632 5.17-4.147 7.733-8.59 10.754-12.645 6.088-32.698 1.051-45.438-3.313C678.019 563.927 656.542 543.774 644 517c-7.012-16.332-8.451-33.014-8.34-50.533 0-1.904 0-3.808-.002-5.712 0-5.116.017-10.233.038-15.35.019-5.366.02-10.733.024-16.099.01-10.14.034-20.278.064-30.417.034-11.553.05-23.106.065-34.658.031-23.744.084-47.487.151-71.231a737.04 737.04 0 0 0-14.886-.012c-1.685.008-3.37.002-5.054-.019-11.637-.398-11.637-.398-21.528 4.979-1.19 1.34-2.369 2.689-3.532 4.052-5.199 3.111-10.903 5.602-17 6l-1.902.188c-9.56.553-19.034-2.576-26.414-8.625C544 298 544 298 542.425 295.94c-3.435-2.748-6.69-2.543-10.91-2.55l-2.47-.05c-2.599-.048-5.197-.07-7.795-.09-1.764-.028-3.529-.058-5.293-.09-4.319-.074-8.638-.123-12.957-.16.06 24.662.138 49.323.236 73.985.045 11.451.084 22.903.11 34.355.023 9.986.057 19.972.103 29.957.024 5.284.042 10.567.049 15.85.006 4.983.026 9.965.056 14.947.009 1.82.013 3.639.011 5.458-.013 18.835 2.61 35.19 14.435 50.448l1.656 2.16c11.395 13.948 27.093 19.114 44.235 21.928 8.128 1.408 15.834 3.477 21.672 9.6 3.259 5.242 3.114 10.236 2.437 16.312-1.649 4.317-3.893 7.163-7.563 9.938-14.543 6.339-35.508.678-49.777-4.434-11.142-4.578-20.754-10.312-29.66-18.504l-1.472-1.343c-18.1-16.7-33.21-40.479-34.642-65.661-.181-5.775-.137-11.552-.113-17.329v-5.827c-.002-5.245.01-10.49.024-15.735.013-5.492.014-10.984.016-16.476.006-10.387.023-20.774.043-31.162.022-11.83.033-23.661.043-35.492.021-24.325.056-48.65.101-72.975a785.72 785.72 0 0 0-15.369-.012c-1.74.008-3.48.002-5.22-.019-11.338-.416-11.338-.416-21.538 3.707-5.625 7.364-3.936 18.761-3.841 27.506-.005 2.286-.012 4.571-.024 6.857-.02 6.199.008 12.397.045 18.595.03 6.497.012 12.993-.001 19.489-.016 10.914-.005 21.828.027 32.742.033 11.206.056 22.412.06 33.618v2.09c.003 7.54.002 15.08-.001 22.62l-.001 2.013-.005 9.943c-.003 7.725.008 15.45.032 23.176.013 4.817.018 9.635.022 14.453.004 2.225.011 4.45.022 6.674.095 19.711-.092 36.65-14.083 51.986C399.2 574.264 390.331 579.732 382 581c-1-1-1-1-1.12-2.886l.006-2.528v-2.906l.016-3.231.005-3.403c.005-3.795.018-7.59.03-11.384.006-2.708.01-5.416.014-8.124.007-4.336.014-8.671.023-13.006.024-10.756.03-21.512.028-32.268v-2.355l-.007-19.205a66218.927 66218.927 0 0 1-.003-19.809c0-13.33.028-26.658.066-39.987.04-13.68.044-27.358.017-41.037-.015-8.44-.003-16.88.044-25.32.03-5.786.026-11.572-.003-17.359-.016-3.34-.012-6.676.02-10.015a569.21 569.21 0 0 0-.022-10.864l.07-3.19c-.093-4.329-.177-7.028-3.182-10.295-2.264-1.764-4.576-3.3-7.002-4.828-7.77-7.757-11.158-16.608-11.5-27.5.348-11.08 3.84-19.48 11.5-27.5 8.394-7.818 18.57-11.348 30-11 11.845 1.563 20.548 6.713 28.309 15.656C431 249 431 249 434 255h30l.078-7.445c.039-2.393.084-4.786.13-7.179.028-1.656.049-3.313.063-4.97.022-2.388.068-4.776.12-7.164l.003-2.226c.19-6.708 2.752-10.243 7.481-14.766 7.099-5.111 14.636-5.537 22.438-1.563Zm-112.239 45.507c-4.081 5.904-5.658 10.56-5.074 17.805 1.853 7.044 4.716 12.133 11 16 6.04 2.9 12.898 3.14 19.348 1.348 6.077-2.729 10.178-7.266 13.027-13.223 1.724-8.618.556-14.723-4.375-22.125-3.911-4.488-8.394-6.537-14.25-7.29-7.689-.456-14.488 1.571-19.676 7.485Zm170.153 1.926c-3.713 5.687-3.96 11.272-3.227 17.879 1.766 6.177 5.673 10.523 11 14 5.575 2.668 10.93 2.86 17 2 6.333-2.505 10.897-5.93 14-12 1.869-5.606 2.03-12.507.352-18.2-3.218-6.118-8.858-10.67-15.352-12.8-10.267-1.32-17.206 1.214-23.773 9.121Zm171.195.547c-3.063 5.024-3.86 10.255-3.035 16.047 1.823 7.007 4.856 11.884 11.176 15.66 5.915 2.662 12.571 2.718 18.773.965 5.828-2.58 10.072-7.003 12.805-12.73 1.915-5.817 1.813-12.305-.703-17.923-2.948-5.071-7.016-8.503-12.25-11.062-11.205-2.197-19.463.015-26.766 9.043Z"/><path fill="#F9F9F9" d="M308.215 189.535c24.104 21.332 39.09 48.365 41.105 80.883.282 7.132.41 13.85-4.32 19.582-4.872 5.041-9.258 7.297-16.25 7.438-6.096-.11-10.376-1.073-14.75-5.438-5.423-6.06-6.087-11.635-7-19.563-2.588-19.163-8.279-33.48-22-47.437l-1.863-1.902c-14.742-13.921-33.47-18.566-53.227-18.317-20.14.624-36.708 9.941-50.406 24.278-15.726 18.474-17.813 39.304-17.779 62.506l-.015 5.835c-.013 5.248-.014 10.496-.012 15.744.001 4.398-.003 8.796-.008 13.194-.011 10.386-.012 20.772-.006 31.158.006 10.675-.006 21.35-.027 32.025-.018 9.2-.024 18.401-.02 27.602.001 5.479-.001 10.958-.015 16.438-.013 5.158-.01 10.316.002 15.474.002 1.88 0 3.759-.009 5.638C161.524 477 164.494 496.112 179 514l2.363 3.027c11.035 12.441 28.767 19.684 45.134 21.205 21.078 1.254 40.316-3.023 56.503-17.232l2.016-1.73c10.138-9.36 16.161-21.19 19.984-34.27l.707-2.387c1.173-4.566 1.468-9.035 1.73-13.738.536-8.443 2.414-13.726 8.563-19.875 5.94-3.637 12.152-3.973 19-3 5.15 2.028 9.032 5.32 12 10 6.85 17.36-.164 40.506-7.074 56.883C335.321 523.41 329.24 532.183 322 541l-1.926 2.43c-18.018 21.683-45.688 33.91-73.199 37.32-1.623.11-3.249.19-4.875.25l-3.418.156c-31.874.768-60.361-9.383-83.773-31.07-22.915-21.866-35.038-51.264-35.992-82.767-.098-5.108-.088-10.215-.076-15.323l-.01-5.83c-.01-5.228-.006-10.455 0-15.683.005-5.503 0-11.007-.002-16.51-.004-9.239 0-18.477.01-27.716.011-10.638.008-21.275-.003-31.913-.01-9.178-.01-18.357-.006-27.535.004-5.462.004-10.924-.003-16.386-.005-5.14-.001-10.279.01-15.418.003-1.87.002-3.742-.002-5.613-.033-15.126.155-30.784 4.765-45.33l.77-2.48c8.604-26.159 27.175-49.354 50.73-63.582l1.7-1.049c41.454-25.242 95.212-17.973 131.515 12.584Z"/><path fill="#03C29E" d="M256 643c12.504 1.25 22.002 4.435 32 12l3 2.125c11.792 10.281 18.118 24.962 19.254 40.305.546 16.958-4.63 30.965-15.504 43.883-8.783 9.306-21.015 15.92-33.75 17.687h-5v-22l10-3c10.23-4.587 15.642-11.92 20-22 2.685-8.054 1.89-18.125-1.754-25.73L283 684l-1.215-2.363C275.886 671.463 266.912 668.274 256 665v-22Z"/><path fill="#CF2D79" d="M245 643v22l-10 3c-2.82 1.493-2.82 1.493-5 3.188-3.832 2.812-3.832 2.812-6 2.812l-.848 1.762c-1.43 2.778-3.12 5.336-4.836 7.945-5.117 8.914-5.883 18.261-3.66 28.238 3.333 9.165 9.078 15.852 17.426 20.766 4.15 1.833 8.572 2.985 12.918 4.289v22c-14.846-1.485-27.158-6.399-38-17-12.222-15.14-17.57-30.341-15.727-49.902C193.602 676.788 202.4 663.924 214 654c9.1-6.604 19.665-11 31-11Z"/><path fill="#F0F0F0" d="M681 677h9l12 34v-34h7v47h-9a2613.04 2613.04 0 0 1-3.188-8.063l-.884-2.22c-2.945-7.505-5.365-15.03-7.928-22.717l-1 33h-6v-47Z"/><path fill="#F2F2F2" d="M412 677h9l12 33 1-33h6v47h-9l-.779-2.168a39552.8 39552.8 0 0 0-3.534-9.832l-1.224-3.41-1.201-3.34-1.095-3.047c-1.364-3.744-2.768-7.472-4.167-11.203v33h-7v-47Z"/><path fill="#EFEFEF" d="M665 678c6.083 6.083 5.285 12.4 5.35 20.493.017 1.498.044 2.995.082 4.492.055 2.167.077 4.332.091 6.5l.06 3.928c-.765 4.705-2.245 6.248-5.583 9.587-3.953 2.288-7.49 2.396-12 2-4.661-1.737-7.309-3.814-10-8-1.368-5.392-1.222-10.784-1.25-16.313-.03-1.51-.03-1.51-.063-3.052-.037-7.256.399-13.563 5.625-19.072 5.798-3.371 11.564-2.961 17.688-.563Zm-14.598 6.642c-1.788 3.008-1.79 5.026-1.8 8.514l-.012 3.598.035 3.746-.035 3.746.012 3.598.01 3.287c.435 3.214 1.124 4.58 3.388 6.869 3.627 1.183 5.305 1.309 8.813-.25 2.45-1.636 2.45-1.636 3.187-4.75.233-3.954.185-7.914.188-11.875l.037-3.3.005-3.192.013-2.91c-.263-2.946-.918-5.085-2.243-7.723-3.72-1.86-8.593-2.445-11.598.642Z"/><path fill="#F0F0F0" d="M396 678c2.974 2.301 4.711 4.813 5.613 8.52.535 4.813.571 9.578.575 14.418l.037 2.92c.025 12.347.025 12.347-3.627 16.884-5.037 3.717-8.339 4.682-14.598 4.258-5.225-1.844-7.328-4.21-10-9-.518-3.432-.518-3.432-.531-7.156l-.012-2.016a300.81 300.81 0 0 1 .022-4.196c.02-2.127 0-4.25-.026-6.378.003-1.366.008-2.732.016-4.098l.013-3.724c.613-4.06 1.981-6.24 4.518-9.432 5.596-3.595 12.023-3.745 18-1Zm-14 6c-2.765 5.498-2.33 10.982-2.313 17l-.048 3.273-.002 3.164-.01 2.872c.446 3.222 1.432 5.097 3.373 7.691 3.662 1.274 5.282 1.335 8.813-.313 2.276-1.503 2.276-1.503 3.187-3.687.272-4.453.232-8.915.25-13.375.03-1.868.03-1.868.063-3.773l.015-3.625.028-3.326c-.398-3.242-1.093-4.586-3.356-6.901-3.884-1.43-6.448-1.112-10 1Z"/><path fill="#EDEDED" d="M527 677c20 0 20 0 26 3 3.17 3.855 4.796 6.992 5 12-.97 5.527-2.684 8.42-7 12-5.426 1.809-11.331 1.052-17 1v19h-7v-47Zm7 6v16l5.75.188 3.234.105c3.36-.326 4.655-.927 7.016-3.293 1.01-3.316 1.154-5.385.313-8.75-1.569-2.689-2.437-3.155-5.313-4.25-2.82-.24-2.82-.24-5.75-.125L534 683Z"/><path fill="#F7F7F7" d="M490 677h27v6h-21v14h19v6h-19v15h21v6h-27v-47Z"/><path fill="#EBEBEB" d="M590.938 680.188c2.444 3.333 2.822 5.729 3.062 9.812h-7l-.938-2.438c-.825-2.453-.825-2.453-2.062-3.562-4.017-.23-4.017-.23-8 0-2.328 1.893-2.328 1.893-2.227 5.073.01 1.288.02 2.576.032 3.904l.008 2.076c.011 2.19.037 4.381.062 6.572.01 1.484.02 2.969.027 4.453.022 3.64.057 7.281.098 10.922l3.813.563 2.144.316c2.246.26 2.246.26 5.043-.879 1.709-3 1.709-3 3-6h6c-.412 5.254-1.177 8.283-5 12-3.978 2.258-7.483 2.39-12 2-5.786-1.765-8.105-3.736-11-9-.502-3.34-.502-3.34-.496-6.938l-.002-3.96.031-2.042c.03-2.055.021-4.107.008-6.162.072-11.287.072-11.287 3.459-16.898 6.938-5.438 15.085-4.915 21.938.188Z"/><path fill="#ECECEC" d="M359.645 679.266c3.012 3.298 4.041 6.345 4.355 10.734h-7l-3-6h-10c-1.421 5.685-1.184 11.224-1.188 17.063l-.037 3.626-.005 3.471-.013 3.176c.05 2.892.05 2.892 2.243 5.664 3.659.949 5.93 1.535 9.375-.188 1.763-1.966 2.268-3.221 2.625-5.812h7c-.508 4.37-1.2 7.547-4 11-4.769 2.66-8.568 3.593-14 3-4.661-1.737-7.309-3.814-10-8-1.38-5.414-1.184-10.825-1.188-16.375l-.037-3.078c-.012-6.48 0-12.38 3.85-17.86 6.167-4.381 14.79-5.216 21.02-.421Z"/><path fill="#F1F1F1" d="M476 680.188c2.37 3.332 2.762 5.77 3 9.812h-7l-.938-2.438c-.825-2.453-.825-2.453-2.062-3.562-4.068-.513-4.068-.513-8 0-4.326 4.491-3.403 10.684-3.313 16.5l-.01 3.129c.036 5.002.233 8.758 2.323 13.371 5.555 1.027 5.555 1.027 11 0l1-6h7c-.248 4.21-.581 6.476-3.25 9.813-4.84 3.85-8.56 4.73-14.75 4.187-3.595-1.452-6.57-2.93-9-6-1.727-5.18-1.265-10.718-1.295-16.141a345.616 345.616 0 0 0-.062-4.327c-.043-2.09-.059-4.18-.069-6.27l-.044-3.783c.556-4.118 1.895-6.258 4.47-9.479 6.918-4.444 14.567-3.504 21 1.188Z"/><path fill="#FAFAFA" d="M605 677h26v6h-10v35h10v6h-26v-6h10v-35h-10v-6Z"/><path fill="#EFEFEF" d="M662.75 662.688 666 663l-6 9c-3.625.188-3.625.188-7 0 3.923-8.827 3.923-8.827 9.75-9.313Z"/><path fill="#CFCFCE" d="M164 187c-1.6 4.041-4.487 6.68-7.563 9.625-3.664 3.339-3.664 3.339-6.437 7.375h-3v2h-2c1.387-3.12 3.002-5.259 5.406-7.672l2.004-2.012 2.09-2.066 2.09-2.113 2.004-1.996 1.834-1.828C162 187 162 187 164 187Z"/><path fill="#B1316B" d="m245 643-1 2c-3.471.868-6.966 1.477-10.484 2.121-3.514.691-3.514.691-6.22 2.54C225 651 225 651 222.689 650.687L221 650c7.488-4.097 15.332-7.312 24-7Z"/><path fill="#AE3069" d="M198 673c1 2 1 2 .313 4.438L197 681l-2.125 5.875c-.624 1.709-1.249 3.417-1.875 5.125-1.699-4.063-.114-7.32 1.375-11.188.235-.64.47-1.282.71-1.943 1.75-4.703 1.75-4.703 2.915-5.869Z"/><path fill="#BFBFBF" d="m377 237 2 1a864.517 864.517 0 0 1-4.375 4.5l-2.46 2.531C370 247 370 247 368 247c1.382-3.21 2.924-5.05 5.625-7.25l1.914-1.578L377 237Z"/><path fill="#10B092" d="M307 714c1.124 3.304.896 5.05-.438 8.25l-.87 2.14L305 726h-1c-.37-7.385-.37-7.385 1.5-10.5l1.5-1.5Z"/><path fill="#B3316C" d="M221 651v2c-3.164 2.17-6.412 3.667-10 5 6.816-7 6.816-7 10-7Z"/><path fill="#12A88C" d="m280 650 3.375 1.813 1.898 1.019C287 654 287 654 289 657c-3.083-1.199-6.063-2.477-9-4v-3Z"/></svg>